<?xml version="1.0" encoding="utf-8"?>
<!-- Generator: Adobe Illustrator 22.1.0, SVG Export Plug-In . SVG Version: 6.00 Build 0)  -->
<svg version="1.1" id="Layer_1" xmlns="http://www.w3.org/2000/svg" xmlns:xlink="http://www.w3.org/1999/xlink" x="0px" y="0px"
	 viewBox="0 0 1027.7 228.8" style="enable-background:new 0 0 1027.7 228.8;" xml:space="preserve">
<style type="text/css">
	.st0{fill:#231F20;}
	.st1{fill:#989898;}
	.st2{fill:#CB1C68;}
</style>
<path class="st0" d="M34.8,69.5h0.5c3.5-5.7,7.7-9.4,12.3-11.6c4.9-2.5,10.6-3.5,17-3.5c16.5,0,31.1,9.9,31.1,27.2v100H61V95.7
	c0-11.1-2-19.8-13.1-19.8s-13.1,8.6-13.1,19.8v85.9H0V56.9h34.8V69.5z"/>
<path class="st0" d="M146.5,124.8c0,14.8,0.5,37,15.8,37c12.3,0,14.8-11.9,14.8-22.2h35.3c-0.5,13.6-4.9,24.7-13.3,32.4
	c-8.1,7.7-20.5,12.1-36.8,12.1c-44.9,0-50.9-27.4-50.9-66.4c0-34.1,4.9-63.2,50.9-63.2c46.9,0,52.1,30.4,50.9,70.4L146.5,124.8
	L146.5,124.8z M178.4,105.3c0-12.1,0.5-29.4-16.1-29.4c-16.1,0-15.8,18.8-15.8,29.4H178.4z"/>
<path class="st0" d="M246.5,181.6H212l36.8-65.4L215,56.9h39l18.3,37.8l21-37.8H328l-33.3,59.8l35.8,64.9h-39.3l-21.7-43.7
	L246.5,181.6z"/>
<path class="st0" d="M333.9,56.9H348V37.1l34.8-15.6v35.3h18v21.5h-18V145c0,9.4-0.2,15.6,11.1,15.6c2.2,0,4.4,0,6.2-0.5v21.5
	c-4.7,0.5-9.6,1.2-18,1.2c-30.1,0-34.1-20-34.1-27.7V78.3h-14.1V56.9L333.9,56.9z"/>
<path class="st1" d="M496.2,48.5c-0.5-22-5.9-35.3-30.1-35.3c-19.3,0-31.4,6.7-31.4,27.7c0,26.4,13.3,27.2,33.6,41.7
	c22,15.8,44.5,20.5,44.5,55.1c0,31.9-16.3,47.4-47.4,47.4c-34.8,0-50.4-18.8-48.9-53.6h16.3c0,19.8,1.5,40.3,33.3,40.3
	c20.7,0,30.9-11.1,30.9-31.6c0-24.2-16.1-31.1-41.7-46.9c-34.6-21.2-36.1-31.9-36.3-49.6C418.8,12.8,438.3,0,467.4,0
	c37,0,44.9,23,44.9,48.6h-16.1V48.5z"/>
<path class="st1" d="M532.7,181.6V3.3h14.8v68.9h0.5c7.2-10.4,16.8-17.8,30.1-17.8c30.9,0,34.1,23,34.1,39.3v87.9h-14.8V94.4
	c0-14.6-5.7-28.2-23-28.2c-13.3,0-26.9,9.1-26.9,37v78.3L532.7,181.6L532.7,181.6z"/>
<path class="st1" d="M633.8,132.7v-26.9c0-32.4,13.8-51.4,43-51.4c29.1,0,43,19,43,51.4v26.9c0,32.3-13.8,51.4-43,51.4
	C647.6,184.1,633.8,165,633.8,132.7z M648.6,119.1c0,32.6,3.7,53.1,28.2,53.1c24.4,0,28.2-20.5,28.2-53.1c0-32.4-3.7-52.8-28.2-52.8
	S648.6,86.8,648.6,119.1z"/>
<path class="st1" d="M754.1,71.9l0.5-0.2c7.9-12.1,20.3-17.3,30.1-17.3c39,0,39.3,34.1,39.3,50.4v27.9c0,32.3-11.1,51.4-43,51.4
	c-9.1,0-18.3-4.4-25.9-16.3l-0.5-0.2v61.2h-14.8V56.9h14.3V71.9L754.1,71.9z M754.6,130.2c0,28.4,12.8,42,26.4,42
	c24.4,0,28.2-20.5,28.2-53.1c0-32.4-3.7-52.8-28.2-52.8c-9.6,0-26.4,10.9-26.4,41.7V130.2z"/>
<path class="st2" d="M849,133.3V182h48.7C897.7,155,876,133.3,849,133.3z M849,68.3v32.5c44.8,0,81.2,36.4,81.2,81.2h32.5
	C962.7,119.1,911.9,68.3,849,68.3z M849,3.3v32.5c80.7,0,146.2,65.5,146.2,146.2h32.5C1027.7,83.2,947.6,3.3,849,3.3z"/>
</svg>
